<svg width="50" height="50" viewBox="0 0 50 50" fill="none" xmlns="http://www.w3.org/2000/svg">
<g clip-path="url(#clip0_63_5694)">
<path fill-rule="evenodd" clip-rule="evenodd" d="M29.204 12.5245C29.2222 12.4985 29.2579 12.4922 29.2839 12.5104L31.059 13.7533C31.085 13.7715 31.0913 13.8073 31.0732 13.8333L28.6025 17.3618C29.8036 17.7455 30.6219 18.1594 30.6219 18.1594C30.6219 18.1594 28.6217 21.6 25.2291 21.6C21.8365 21.6 19.4258 18.3933 19.4258 18.3933C19.4258 18.3933 20.2806 17.8478 21.5477 17.3799L18.8377 14.1503C18.8174 14.126 18.8205 14.0898 18.8448 14.0694L20.5048 12.6765C20.5291 12.6561 20.5653 12.6593 20.5857 12.6836L24.017 16.7728C24.3108 16.7396 24.6101 16.721 24.9122 16.721C25.3463 16.721 25.7799 16.754 26.2032 16.81L29.204 12.5245ZM29.8752 21.7629C30.7805 21.1163 32.1505 19.4287 32.1505 19.4287C32.1505 19.4287 35.6497 22.2017 35.6497 28.0815C35.6497 33.9612 29.6 37.5 29.6 37.5C29.6 37.5 26.7096 34.581 26 30.8807C25.2905 27.1804 27.0497 23.0716 27.0497 23.0716C27.0497 23.0716 28.9698 22.4095 29.8752 21.7629ZM20.1249 21.7629C19.2196 21.1163 17.8496 19.4287 17.8496 19.4287C17.8496 19.4287 14.3503 22.2017 14.3503 28.0815C14.3503 33.9612 20.4 37.5 20.4 37.5C20.4 37.5 23.2905 34.581 24.0001 30.8807C24.7096 27.1804 22.9504 23.0716 22.9504 23.0716C22.9504 23.0716 21.0303 22.4095 20.1249 21.7629Z" fill="white"/>
</g>
<defs>
<clipPath id="clip0_63_5694">
<rect width="25" height="25" fill="white" transform="translate(12.5 12.5)"/>
</clipPath>
</defs>
</svg>
