<svg width="50" height="50" viewBox="0 0 50 50" fill="none" xmlns="http://www.w3.org/2000/svg">
<g clip-path="url(#clip0_63_5693)">
<path fill-rule="evenodd" clip-rule="evenodd" d="M23.7169 34.6118C24.1919 34.6845 24.6783 34.7222 25.1736 34.7222C30.4472 34.7222 34.7222 30.4472 34.7222 25.1736C34.7222 19.9 30.4472 15.625 25.1736 15.625C24.8198 15.625 24.4704 15.6442 24.1266 15.6817C26.7426 17.6636 28.4722 21.0968 28.4722 25C28.4722 29.1035 26.5605 32.6875 23.7169 34.6118ZM25 37.5C31.9035 37.5 37.5 31.9036 37.5 25C37.5 18.0964 31.9035 12.5 25 12.5C18.0964 12.5 12.5 18.0964 12.5 25C12.5 31.9036 18.0964 37.5 25 37.5Z" fill="white"/>
</g>
<defs>
<clipPath id="clip0_63_5693">
<rect width="25" height="25" fill="white" transform="translate(12.5 12.5)"/>
</clipPath>
</defs>
</svg>
