<svg width="50" height="50" viewBox="0 0 50 50" fill="none" xmlns="http://www.w3.org/2000/svg">
<g clip-path="url(#clip0_63_5692)">
<path fill-rule="evenodd" clip-rule="evenodd" d="M26.2127 24.9454C26.3822 24.842 26.5259 24.6255 26.6418 24.3849C28.1675 25.0084 29.2396 26.4819 29.2396 28.2002C29.2396 30.4829 27.3475 32.3334 25.0135 32.3334C24.0554 32.3334 23.1718 32.0216 22.4629 31.496C22.2304 31.3859 22.0391 31.2802 21.8826 31.1936C21.6397 31.0594 21.4805 30.9713 21.3808 30.9851C21.0894 31.0253 21.174 31.2935 21.2509 31.5371C21.3031 31.7025 21.3518 31.8567 21.2764 31.9203C21.1976 31.9869 20.9423 31.7435 20.644 31.4591C20.238 31.0719 19.7522 30.6088 19.5232 30.7479C19.3421 30.8579 19.5179 31.1563 19.7332 31.5215L19.7491 31.5486C19.84 31.703 19.9454 31.8603 20.0416 32.0037C20.237 32.2953 20.3944 32.5302 20.3157 32.57C20.2205 32.618 19.5571 32.1703 18.998 31.5486C18.7823 31.3087 18.5733 31.0487 18.3791 30.807V30.807C17.9539 30.278 17.5997 29.8373 17.4009 29.8895C17.1617 29.9523 17.3426 30.4457 17.6085 30.9204C17.7328 31.1424 17.8791 31.3685 18.0057 31.5643V31.5643C18.2026 31.8687 18.3521 32.0997 18.2979 32.1281C18.2247 32.1664 17.5811 31.5388 17.144 30.7479C16.8843 30.2781 16.6663 29.759 16.4898 29.3387C16.2984 28.8829 16.1558 28.5434 16.0619 28.5092C15.7357 28.3905 15.7357 29.0556 15.8665 30.0155C15.8836 30.1408 15.909 30.2721 15.9403 30.4059C17.2091 34.511 21.1066 37.5 25.7179 37.5C31.3584 37.5 35.9308 33.0279 35.9308 27.5113C35.9308 22.2607 31.7888 17.9564 26.5261 17.5534C26.5328 17.3061 26.6619 16.8156 26.6619 16.8156C26.6619 16.8156 27.5909 14.5677 27.64 14.0874C27.6433 14.0555 27.6471 14.0209 27.6513 13.984C27.7091 13.465 27.8168 12.5 26.9866 12.5C26.5433 12.5 26.3371 12.8298 26.1013 13.207V13.207C26.0108 13.3518 25.9159 13.5036 25.8015 13.6464C24.9779 14.675 23.5929 15.9594 22.8076 16.6437C21.1478 18.09 19.5192 19.2787 18.5694 19.972L18.5694 19.972C18.1374 20.2873 17.8459 20.5001 17.7556 20.5881C17.0756 21.251 14.6375 25.6487 14.6375 25.6487C14.6375 25.6487 13.8491 27.0597 14.1293 27.3458C14.4096 27.632 15.0854 27.5664 15.0854 27.5664C15.0854 27.5664 24.1646 25.4835 24.9774 25.3193C25.1962 25.275 25.3507 25.2495 25.4693 25.2299C25.7914 25.1768 25.8492 25.1672 26.2127 24.9454ZM19.7935 22.2688C19.3061 22.732 18.4979 23.8377 18.4979 23.8377C18.4979 23.8377 20 23.9302 20.8273 23.1438C21.6546 22.3574 21.4651 21.0172 21.4651 21.0172C21.4651 21.0172 20.2808 21.8055 19.7935 22.2688Z" fill="white"/>
</g>
<defs>
<clipPath id="clip0_63_5692">
<rect width="25" height="25" fill="white" transform="translate(12.5 12.5)"/>
</clipPath>
</defs>
</svg>
