<svg width="50" height="50" viewBox="0 0 50 50" fill="none" xmlns="http://www.w3.org/2000/svg">
<g clip-path="url(#clip0_63_5691)">
<path fill-rule="evenodd" clip-rule="evenodd" d="M19.9254 12.5286C19.9206 12.5146 19.931 12.5 19.9458 12.5H28.756C28.7654 12.5 28.7738 12.5062 28.7766 12.5152L32.8232 25.5892C32.8275 25.6031 32.8171 25.6171 32.8026 25.6171H26.9373C26.9302 25.6171 26.925 25.6239 26.927 25.6308L30.2909 37.4724C30.2974 37.4954 30.2673 37.5104 30.253 37.4913L17.1804 20.1068C17.1697 20.0926 17.1798 20.0723 17.1976 20.0723H22.5208C22.5282 20.0723 22.5334 20.065 22.531 20.058L19.9254 12.5286Z" fill="white"/>
</g>
<defs>
<clipPath id="clip0_63_5691">
<rect width="25" height="25" fill="white" transform="translate(12.5 12.5)"/>
</clipPath>
</defs>
</svg>
