<svg width="50" height="50" viewBox="0 0 50 50" fill="none" xmlns="http://www.w3.org/2000/svg">
<g clip-path="url(#clip0_63_5690)">
<path fill-rule="evenodd" clip-rule="evenodd" d="M17.5161 32.3238L21.5261 31.1611L24.9896 37.4938C24.9941 37.5021 25.0059 37.5021 25.0104 37.4938L28.4739 31.1611L32.4839 32.3238C32.4929 32.3264 32.5013 32.318 32.4986 32.3091L31.3356 28.3784L37.4938 25.0104C37.5021 25.0059 37.5021 24.9941 37.4938 24.9896L31.2849 21.5938L32.4986 17.4916C32.5013 17.4826 32.4929 17.4743 32.4839 17.4769L28.3798 18.6669L25.0104 12.5062C25.0059 12.4979 24.9941 12.4979 24.9896 12.5062L21.6202 18.6669L17.5161 17.4769C17.5071 17.4743 17.4988 17.4826 17.5014 17.4916L18.7151 21.5938L12.5062 24.9896C12.4979 24.9941 12.4979 25.0059 12.5062 25.0104L18.6643 28.3784L17.5014 32.3091C17.4988 32.318 17.5071 32.3264 17.5161 32.3238ZM20.6278 25.0432L23.4687 26.5969L25.0224 29.4377C25.0269 29.446 25.0387 29.446 25.0432 29.4377L26.5969 26.5969L29.4377 25.0432C29.4459 25.0387 29.4459 25.0269 29.4377 25.0224L26.5969 23.4687L25.0432 20.6279C25.0387 20.6196 25.0269 20.6196 25.0224 20.6279L23.4687 23.4687L20.6278 25.0224C20.6196 25.0269 20.6196 25.0387 20.6278 25.0432Z" fill="white"/>
</g>
<defs>
<clipPath id="clip0_63_5690">
<rect width="25" height="25" fill="white" transform="translate(12.5 12.5)"/>
</clipPath>
</defs>
</svg>
