<svg width="50" height="50" viewBox="0 0 50 50" fill="none" xmlns="http://www.w3.org/2000/svg">
<g clip-path="url(#clip0_63_5689)">
<path fill-rule="evenodd" clip-rule="evenodd" d="M16.8115 14.5784C17.114 13.3839 18.1962 12.5 19.4848 12.5C20.4513 12.5 21.3018 12.9973 21.7941 13.75H22.6004C23.1014 13.2359 23.8012 12.9167 24.5757 12.9167C25.7111 12.9167 26.6863 13.6029 27.1091 14.5833H27.7841C28.2071 14.3193 28.7069 14.1667 29.2423 14.1667C30.3778 14.1667 31.353 14.8529 31.7757 15.8333H33.6114C33.6271 15.8333 33.6418 15.8376 33.6544 15.8449C33.7383 15.8373 33.8232 15.8333 33.909 15.8333C35.432 15.8333 36.6666 17.0679 36.6666 18.5909V26.8597L36.6666 26.875L36.6666 26.8903V27.0094C36.6666 27.0599 36.6652 27.1101 36.6625 27.1601C36.4965 32.8963 31.3386 37.5 24.9999 37.5C18.5566 37.5 13.3333 32.743 13.3333 26.875C13.3333 24.0425 14.5503 21.4689 16.5341 19.5642C16.5292 22.3256 16.5758 25.1804 16.7908 25.1314C17.3665 25.0001 16.9167 16.4472 16.8115 14.5784Z" fill="white"/>
</g>
<defs>
<clipPath id="clip0_63_5689">
<rect width="25" height="25" fill="white" transform="translate(12.5 12.5)"/>
</clipPath>
</defs>
</svg>
