<svg width="50" height="50" viewBox="0 0 50 50" fill="none" xmlns="http://www.w3.org/2000/svg">
<g clip-path="url(#clip0_63_5688)">
<path fill-rule="evenodd" clip-rule="evenodd" d="M29.7084 31.8064C30.0173 30.6769 29.4177 28.355 29.4177 28.355C29.4177 28.355 28.9829 30.2465 28.3034 30.9457C27.7237 31.542 27.0135 31.9556 25.9949 32.0643C26.8277 31.6598 27.4004 30.8164 27.4004 29.8416C27.4004 28.4731 26.2719 27.3637 24.8798 27.3637C23.4877 27.3637 22.3591 28.4731 22.3591 29.8416C22.3591 30.2153 22.4434 30.5697 22.5941 30.8875C21.7234 30.1939 21.5865 29.0817 21.5865 29.0817C21.5865 29.0817 20.6142 33.1184 23.2932 35.0172C25.9722 36.916 31.2202 35.2839 31.2202 35.2839C31.2202 35.2839 23.71 40.5682 18.1448 34.8169C13.3509 29.8625 16.8936 23.34 16.8936 23.34C16.8936 23.34 16.7406 23.9451 16.7406 24.6475C16.7406 25.3499 17.1214 25.8843 17.1214 25.8843C17.1214 25.8843 18.2574 23.4898 19.1415 22.516C19.9782 21.5944 21.0271 20.847 21.9331 20.2014C22.6304 19.7044 23.2431 19.2678 23.609 18.8585C25.6245 16.6049 24.3887 12.5 24.3887 12.5C24.3887 12.5 26.6607 14.5029 27.295 17.0897C27.5368 18.0758 27.3812 19.1977 27.2422 20.201C27.0164 21.8297 26.8339 23.1458 28.465 23.0604C31.1008 22.9223 28.8104 18.8585 28.8104 18.8585C28.8104 18.8585 34.7895 22.0011 34.3428 27.4973C33.8961 32.9935 27.8073 34.243 27.8073 34.243C27.8073 34.243 29.3995 32.9358 29.7084 31.8064Z" fill="white"/>
</g>
<defs>
<clipPath id="clip0_63_5688">
<rect width="25" height="25" fill="white" transform="translate(12.5 12.5)"/>
</clipPath>
</defs>
</svg>
