<svg width="50" height="50" viewBox="0 0 50 50" fill="none" xmlns="http://www.w3.org/2000/svg">
<g clip-path="url(#clip0_63_5687)">
<path fill-rule="evenodd" clip-rule="evenodd" d="M21.2262 35.8333C24.8885 35.8333 28.0238 33.7979 29.3182 30.9126C29.334 30.8774 24.1215 32.2672 24.2877 31.7759C24.3619 31.5565 27.5572 30.3892 29.8852 29.0277C31.2232 28.2451 31.8394 26.5885 31.8394 26.5885C31.8394 26.5885 29.5851 27.683 28.4455 27.9606C26.149 28.5202 24.1275 28.46 24.1275 28.4017C24.1275 28.2756 27.4842 27.6378 32.1496 24.7948C34.3441 23.4575 34.9402 21.1541 34.9402 21.1541C34.9402 21.1541 32.5275 22.5912 31.069 23.0657C27.6102 24.1908 24.4539 24.5299 24.4539 24.3776C24.4539 24.0517 27.2316 23.2878 30.1766 21.8608C31.7078 21.1189 33.034 20.1495 34.5707 19.0716C37.0853 17.3078 37.5 14.1666 37.5 14.1666C37.5 14.1666 35.0199 15.7662 33.8096 16.2975C28.8155 18.4894 24.4057 19.6392 21.2262 19.8882C16.4266 20.264 12.5 23.6127 12.5 27.9606C12.5 32.3086 16.4068 35.8333 21.2262 35.8333Z" fill="white"/>
</g>
<defs>
<clipPath id="clip0_63_5687">
<rect width="25" height="25" fill="white" transform="translate(12.5 12.5)"/>
</clipPath>
</defs>
</svg>
