<svg width="50" height="50" viewBox="0 0 50 50" fill="none" xmlns="http://www.w3.org/2000/svg">
<g clip-path="url(#clip0_63_5686)">
<path fill-rule="evenodd" clip-rule="evenodd" d="M30.5152 37.4134C28.2602 37.5289 25.6785 37.5289 24.8012 37.4134C17.9575 36.5131 12.5 31.5094 12.5 24.7461C12.5 17.9828 18.0964 12.5 25 12.5C31.9036 12.5 37.5 17.9828 37.5 24.7461C37.5 27.8917 36.2894 30.7602 34.2998 32.9291C33.7595 33.518 34.5008 33.9311 35.254 34.3508C35.9927 34.7625 36.7428 35.1805 36.3068 35.777C35.8265 36.4342 33.2223 37.2749 30.5152 37.4134ZM23.2422 23.2153C23.2422 24.2721 22.3677 25.1288 21.2891 25.1288C20.2104 25.1288 19.3359 24.2721 19.3359 23.2153C19.3359 22.5066 19.7292 21.8879 20.3137 21.5572C20.3473 22.4786 21.1049 23.2153 22.0346 23.2153H23.2422V23.2153ZM29.2957 21.5572C29.2621 22.4786 28.5044 23.2153 27.5748 23.2153H26.3672V23.2153C26.3672 24.2721 27.2417 25.1288 28.3203 25.1288C29.399 25.1288 30.2734 24.2721 30.2734 23.2153C30.2734 22.5066 29.8801 21.8879 29.2957 21.5572Z" fill="white"/>
</g>
<defs>
<clipPath id="clip0_63_5686">
<rect width="25" height="25" fill="white" transform="translate(12.5 12.5)"/>
</clipPath>
</defs>
</svg>
