<svg width="50" height="50" viewBox="0 0 50 50" fill="none" xmlns="http://www.w3.org/2000/svg">
<g clip-path="url(#clip0_63_5685)">
<path fill-rule="evenodd" clip-rule="evenodd" d="M17.1494 34.3085C17.0603 34.2247 16.9722 34.1392 16.8851 34.0522C12.288 29.4551 12.288 22.0017 16.8851 17.4047C21.4821 12.8075 36.1303 12.5 36.1303 12.5C36.1303 12.5 38.1297 29.4551 33.5326 34.0522C29.4498 38.135 23.1141 38.5917 18.5272 35.4224L22.2231 30.8869L28.1314 29.6113L23.3085 29.1291L26.3735 26.0084L29.8625 25.2441L27.1036 24.427L29.8625 19.4502L25.9383 23.8518L24.4229 21.7134L24.9564 25.2441L22.2231 28.3253L20.9562 24.427V29.6113L17.1494 34.3085Z" fill="white"/>
</g>
<defs>
<clipPath id="clip0_63_5685">
<rect width="25" height="25" fill="white" transform="translate(12.5 12.5)"/>
</clipPath>
</defs>
</svg>
