<svg width="50" height="50" viewBox="0 0 50 50" fill="none" xmlns="http://www.w3.org/2000/svg">
<g clip-path="url(#clip0_63_5684)">
<path fill-rule="evenodd" clip-rule="evenodd" d="M18.0061 33.992C17.9993 33.992 17.9946 33.9853 17.9968 33.9789L24.3794 15.944C24.3808 15.9401 24.3845 15.9375 24.3887 15.9375H31.2023C31.2064 15.9375 31.2102 15.9401 31.2115 15.9441L37.4995 33.9789C37.5017 33.9853 37.4969 33.992 37.4902 33.992H18.1979H18.0061ZM12.5098 34.0625C12.503 34.0625 12.4982 34.0557 12.5006 34.0493L17.2536 21.3602C17.255 21.3563 17.2587 21.3538 17.2628 21.3538H21.3925C21.3993 21.3538 21.4041 21.3606 21.4017 21.367L16.8058 34.0561C16.8044 34.0599 16.8007 34.0625 16.7966 34.0625H12.5098Z" fill="white"/>
</g>
<defs>
<clipPath id="clip0_63_5684">
<rect width="25" height="25" fill="white" transform="translate(12.5 12.5)"/>
</clipPath>
</defs>
</svg>
