<svg width="50" height="50" viewBox="0 0 50 50" fill="none" xmlns="http://www.w3.org/2000/svg">
<g clip-path="url(#clip0_63_5683)">
<path d="M24.6278 17.1504L18.4186 14.0752L18.6064 20.9483L24.469 23.8518L24.6278 17.1504Z" fill="white"/>
<path d="M31.5212 21.032L31.4423 14.1035L25.4036 17.3911L25.4781 23.9329L31.5212 21.032Z" fill="white"/>
<path d="M31.5177 28.4429L37.5 25.0211L31.5146 21.8731L25.5319 25.0157L31.5177 28.4429Z" fill="white"/>
<path d="M24.4681 25.0211L18.4858 28.4429L12.5 25.0157L18.4827 21.8731L24.4681 25.0211Z" fill="white"/>
<path d="M31.6113 35.8623L25.4021 32.7871L25.5609 26.0856L31.4235 28.9892L31.6113 35.8623Z" fill="white"/>
<path d="M18.5541 28.9963L18.6331 35.9248L24.6718 32.6372L24.5973 26.0954L18.5541 28.9963Z" fill="white"/>
</g>
<defs>
<clipPath id="clip0_63_5683">
<rect width="25" height="25" fill="white" transform="translate(12.5 12.5)"/>
</clipPath>
</defs>
</svg>
