<svg width="50" height="50" viewBox="0 0 50 50" fill="none" xmlns="http://www.w3.org/2000/svg">
<g clip-path="url(#clip0_63_5681)">
<path fill-rule="evenodd" clip-rule="evenodd" d="M33.3897 31.7114C35.9143 29.6928 37.5 26.7762 37.5 23.5327C37.5 17.4395 31.9036 12.5 25 12.5C18.0964 12.5 12.5 17.4395 12.5 23.5327C12.5 26.6591 13.9733 29.4817 16.3406 31.4893C16.1971 31.9847 16.1184 32.5235 16.1184 33.0869C16.1184 35.5242 17.5912 37.5 19.4079 37.5C20.5884 37.5 21.6236 36.6658 22.204 35.4128C22.7843 36.6658 23.8195 37.5 25 37.5C26.0761 37.5 27.0314 36.8068 27.6316 35.7352C28.2317 36.8068 29.1871 37.5 30.2631 37.5C32.0799 37.5 33.5526 35.5242 33.5526 33.0869C33.5526 32.6066 33.4954 32.1442 33.3897 31.7114ZM32.2369 23.7515C32.2369 26.845 28.9231 29.3527 24.8355 29.3527C20.7479 29.3527 17.4342 26.845 17.4342 23.7515C17.4342 20.6581 20.7479 18.1503 24.8355 18.1503C28.9231 18.1503 32.2369 20.6581 32.2369 23.7515Z" fill="white"/>
</g>
<defs>
<clipPath id="clip0_63_5681">
<rect width="25" height="25" fill="white" transform="translate(12.5 12.5)"/>
</clipPath>
</defs>
</svg>
