<svg width="371" height="371" viewBox="0 0 371 371" fill="none" xmlns="http://www.w3.org/2000/svg">
<path d="M185.5 0C280.961 0 359.705 71.039 371 162.761H280.463C270.155 120.194 231.549 88.5613 185.5 88.5613C139.451 88.5613 100.845 120.194 90.5367 162.761H0C11.2949 71.039 90.0393 0 185.5 0Z" fill="url(#paint0_linear_268_1)"/>
<path d="M280.463 208.239H371C359.705 299.961 280.961 371 185.5 371C90.0393 371 11.2949 299.961 0 208.239H90.5367C100.845 250.806 139.451 282.439 185.5 282.439C231.549 282.439 270.155 250.806 280.463 208.239Z" fill="url(#paint1_linear_268_1)"/>
<path d="M185.5 246.535C219.462 246.535 246.993 219.209 246.993 185.5C246.993 151.791 219.462 124.465 185.5 124.465C151.538 124.465 124.007 151.791 124.007 185.5C124.007 219.209 151.538 246.535 185.5 246.535Z" fill="url(#paint2_linear_268_1)"/>
<defs>
<linearGradient id="paint0_linear_268_1" x1="185.5" y1="185.5" x2="185.5" y2="351.733" gradientUnits="userSpaceOnUse">
<stop stop-color="#F5F5F5"/>
<stop offset="1" stop-color="white"/>
</linearGradient>
<linearGradient id="paint1_linear_268_1" x1="185.5" y1="185.5" x2="185.5" y2="351.733" gradientUnits="userSpaceOnUse">
<stop stop-color="#F5F5F5"/>
<stop offset="1" stop-color="white"/>
</linearGradient>
<linearGradient id="paint2_linear_268_1" x1="185.5" y1="185.5" x2="185.5" y2="351.733" gradientUnits="userSpaceOnUse">
<stop stop-color="#F5F5F5"/>
<stop offset="1" stop-color="white"/>
</linearGradient>
</defs>
</svg>
