<svg width="50" height="50" viewBox="0 0 50 50" fill="none" xmlns="http://www.w3.org/2000/svg">
<g clip-path="url(#clip0_63_5680)">
<path fill-rule="evenodd" clip-rule="evenodd" d="M34.777 33.2632C34.777 33.2632 31.6243 35.7917 25.3506 34.7454C20.5908 33.9515 18.0521 28.7045 18.0521 25.8842C18.0521 19.1975 23.0012 17.6758 26.3471 17.6758C29.693 17.6758 31.8757 20.9378 31.8757 23.4635C31.8757 25.9892 30.0894 28.1983 27.3094 28.1983C24.5295 28.1983 23.7062 26.2467 23.7062 24.4524C23.7062 22.6581 25.1579 22.026 26.4818 22.026C27.8057 22.026 28.259 23.1563 28.259 24.1277C28.259 25.0992 27.5053 25.4471 26.8766 25.4471C26.2479 25.4471 26.1858 25.1299 25.9452 24.7966C25.7045 24.4633 26.252 23.2016 25.3506 23.2016C24.4491 23.2016 24.2811 24.652 24.2811 24.652C24.2811 24.652 24.6097 27.4518 27.3094 27.4035C30.0092 27.3552 31.2899 25.268 30.9177 23.2016C30.5455 21.1352 28.5401 18.9394 25.0204 19.3831C21.5008 19.8268 20.0638 23.3831 20.6972 27.1835C21.3306 30.9839 25.8835 33.1859 29.4633 32.3937C33.043 31.6015 36.6084 29.0099 36.6084 22.4392C36.6084 15.8685 30.9177 11.9189 24.1321 12.5698C17.3464 13.2207 13.1342 19.1532 13.4038 26.2811C13.6734 33.4091 20.437 37.2912 26.1564 37.4913C31.8757 37.6914 35.3819 34.3806 35.3819 34.3806C35.3819 34.3806 36.1704 33.6775 35.8612 33.1284C35.5521 32.5793 34.777 33.2632 34.777 33.2632Z" fill="white"/>
</g>
<defs>
<clipPath id="clip0_63_5680">
<rect width="25" height="25" fill="white" transform="translate(12.5 12.5)"/>
</clipPath>
</defs>
</svg>
