<svg width="50" height="50" viewBox="0 0 50 50" fill="none" xmlns="http://www.w3.org/2000/svg">
<g clip-path="url(#clip0_63_5679)">
<path fill-rule="evenodd" clip-rule="evenodd" d="M31.8027 24.4736C31.8013 24.4717 31.8007 24.4692 31.8011 24.4668L33.3928 15.1859C33.3935 15.1817 33.3972 15.1785 33.4015 15.1785H33.9053C33.9092 15.1785 33.9126 15.181 33.9137 15.1848L37.4996 26.5384C37.5007 26.5419 37.4995 26.5458 37.4966 26.5481L34.8527 28.6123C34.8487 28.6154 34.843 28.6146 34.8401 28.6105L31.8027 24.4736ZM12.5 30.6262C12.5 30.63 12.5025 30.6334 12.5061 30.6346L17.9562 32.4166C17.9589 32.4175 17.9618 32.4171 17.9641 32.4155L30.1463 24.0052C30.1484 24.0038 30.1498 24.0016 30.1501 23.9991L31.4565 15.2335C31.4573 15.2281 31.4531 15.2233 31.4477 15.2233H20.6572C20.6546 15.2233 20.6521 15.2245 20.6504 15.2265L12.502 25.0562C12.5007 25.0578 12.5 25.0598 12.5 25.0619V30.6262ZM20.2273 32.8707L26.1815 34.8211C26.1841 34.822 26.1871 34.8215 26.1894 34.8199L33.2782 29.735C33.2821 29.7323 33.2831 29.7268 33.2804 29.7228L30.623 25.7684C30.6203 25.7642 30.6147 25.7632 30.6106 25.766L20.2273 32.8707Z" fill="white"/>
</g>
<defs>
<clipPath id="clip0_63_5679">
<rect width="25" height="25" fill="white" transform="translate(12.5 12.5)"/>
</clipPath>
</defs>
</svg>
