<svg width="50" height="50" viewBox="0 0 50 50" fill="none" xmlns="http://www.w3.org/2000/svg">
<g clip-path="url(#clip0_63_5678)">
<path fill-rule="evenodd" clip-rule="evenodd" d="M12.5025 25.0152C12.4992 25.0096 12.4992 25.0026 12.5025 24.9968L18.7888 14.2563C18.7921 14.2507 18.7981 14.2473 18.8046 14.2473H31.2644C31.2709 14.2473 31.2769 14.2508 31.2802 14.2564L37.4975 24.9969C37.5008 25.0026 37.5008 25.0095 37.4975 25.0151L31.2802 35.7436C31.2769 35.7492 31.2709 35.7527 31.2644 35.7527H18.8046C18.7981 35.7527 18.7921 35.7493 18.7888 35.7437L12.5025 25.0152ZM30.7919 25C30.7919 28.1977 28.1996 30.7899 25.002 30.7899C21.8043 30.7899 19.2121 28.1977 19.2121 25C19.2121 21.8023 21.8043 19.2101 25.002 19.2101C28.1996 19.2101 30.7919 21.8023 30.7919 25Z" fill="white"/>
</g>
<defs>
<clipPath id="clip0_63_5678">
<rect width="25" height="25" fill="white" transform="translate(12.5 12.5)"/>
</clipPath>
</defs>
</svg>
