<svg width="50" height="50" viewBox="0 0 50 50" fill="none" xmlns="http://www.w3.org/2000/svg">
<g clip-path="url(#clip0_63_5677)">
<path fill-rule="evenodd" clip-rule="evenodd" d="M33.11 29.4204C33.11 33.8827 29.479 37.5 24.9999 37.5C20.5209 37.5 16.8899 33.8827 16.8899 29.4204C16.8899 25.0806 24.5612 13.1615 24.982 12.5111C24.9916 12.4963 25.0083 12.4963 25.0179 12.5111C25.4386 13.1615 33.11 25.0806 33.11 29.4204ZM23.648 34.9097C19.5326 34.0093 20.2368 29.4505 20.2368 29.4505C20.2368 29.4505 21.3606 32.2024 24.0877 33.0939C26.8148 33.9853 30.1105 32.6779 30.1105 32.6779C30.1105 32.6779 27.7634 35.8102 23.648 34.9097Z" fill="white"/>
</g>
<defs>
<clipPath id="clip0_63_5677">
<rect width="25" height="25" fill="white" transform="translate(12.5 12.5)"/>
</clipPath>
</defs>
</svg>
